<svg xmlns="http://www.w3.org/2000/svg"  viewBox="0 0 1024 1024">

    <!-- <path fill="currentColor"
        d="M652.492 839.199c-29.151 15.227-57.585 32.405-86.628 47.891-5.347 2.852-10.671 6.238-16.224 8.623a40.5 40.5 0 0 1-11.884 3.135c-12.209 1.353-17.207-3.912-25.938-11.137-3.346-2.769-6.793-5.606-10.147-8.378l-39.021-32.272-136.212-111.628c-14.141-11.394-28.015-23.748-42.051-35.424L161.957 598.79l-74.2-60.573c-6.415-5.252-28.844-22.487-32.985-28.205-14.925-20.613-23.42-50.364-26.074-75.6-4.274-40.638 2.928-100.64 43.53-121.317 17.01-8.7 34.897-16.91 52.125-25.436l132.336-64.949 128.749-63.106 39.388-19.548c7.056-3.553 15.855-8.327 22.982-11.458a55.4 55.4 0 0 1 17.257-4.61c24.014-2.304 37.469 11.212 56.446 23.001a5496 5496 0 0 1 82.206 52.49l192.241 124.407 139.955 90.872 33.59 21.965c5.702 3.721 11.95 7.626 17.367 11.732 1.78 1.349 1.971 1.599 2.094 3.272-2.164 4.947-12.64 9.291-17.561 11.78l-23.871 12.03c-.478 49.241.247 98.246-.581 147.6 7.241 2.018 39.835 9.954 42.836 13.757.559 3.522.554 15.477.055 19.019-4.786 5.104-49.382 28.183-58.778 33.306a11952 11952 0 0 1-146.863 78.415c-24.833 13.167-50.201 27.455-75.168 40.074 6.638 23.651 12.848 32.404 27.885 51.594-16.417-5.26-28.951-10.684-44.883-16.657-7.83 17.628-11.164 30.415-11.74 49.986-15.609-16.141-22.525-32.207-27.803-53.432" 
        /> -->
    <!-- <path fill="currentColor"
        d="M536.958 689.33c9.758-5.76 23.811-11.982 34.342-17.425l86.935-44.891L941.22 479.163c.607 17.51-.091 39.573-.14 57.426a14379 14379 0 0 1-173.276 92.593c-23.38 12.418-49.206 25.393-72.119 38.16.218.614 1.139 3.335 1.363 3.775 5.322 14.278 6.569 32.17 8.074 47.312.283 2.842.488 13.99 1.39 15.834-.635 1.551-.711 3.111.042 4.645-.853 2.096-1.338 32.517-.492 33.944-1.021 1.666-.543 3.481.015 5.226-.588 1.332-.353 1.735-.124 3.197.047 1.574.036 3.656.321 5.144.438 3.94.862 9.073 1.69 12.856-.244 3.144.04 5.45 1.069 8.433 6.638 23.651 12.848 32.404 27.885 51.594-16.417-5.26-28.951-10.684-44.883-16.657-7.83 17.628-11.164 30.415-11.74 49.986-15.609-16.141-22.525-32.207-27.803-53.432-.043-2.599-.488-6.975-1.239-9.421a2524 2524 0 0 1-67.612 38.085c-9.353 5.168-20.531 10.859-29.57 16.396-27.199 16.662-34.802-1.436-42.121-25.599-15.955-52.669-17.048-118.171 17.523-164.319-6.303 16.252-11.856 31.359-13.359 48.931-.35 4.09-2.34 13.526.777 16.202l1.42-.205c.763-.885 1.224-1.509 1.268-2.772.864-25.13 6.792-44.424 17.379-67.167" 
        /> -->
    <path fill="#973e45"
        d="M644.147 695.199c4.328-2.653 10.882-5.5 15.496-8.04 11.939-6.571 24.328-12.88 36.042-19.817.218.614 1.139 3.335 1.363 3.775 5.322 14.278 6.569 32.17 8.074 47.312.283 2.842.488 13.99 1.39 15.834-.635 1.551-.711 3.111.042 4.645-.853 2.096-1.338 32.517-.492 33.944-1.021 1.666-.543 3.481.015 5.226-.588 1.332-.353 1.735-.124 3.197.047 1.574.036 3.656.321 5.144.438 3.94.862 9.073 1.69 12.856-.244 3.144.04 5.45 1.069 8.433 6.638 23.651 12.848 32.404 27.885 51.594-16.417-5.26-28.951-10.684-44.883-16.657-7.83 17.628-11.164 30.415-11.74 49.986-15.609-16.141-22.525-32.207-27.803-53.432-.043-2.599-.488-6.975-1.239-9.421q-.506-6.232-1.286-12.435l-.182-5.273c-.16-1.288-.329-1.621-.764-2.861.916-1.081.42-3.523.286-4.88.188-4.255 1.391-40.359.701-42.071.802-1.662.608-2.99-.06-4.684l.439-.363c2.989-10.107-2.013-46.096-4.931-57.423z" 
        />
    <!-- <path fill="currentColor"
        d="M530.866 868.704a6171 6171 0 0 1 64.268-35.329c16.501-9.106 37.305-21.104 54.173-29.046.134 1.357.63 3.799-.286 4.88.435 1.24.604 1.573.764 2.861l.182 5.273c-21.663 12.419-45.105 24.387-67.038 36.585a1963 1963 0 0 1-31.463 17.448c-3.684 1.991-16.056 9.726-19.44 7.585-7.19-4.551-16.668-45.947-12.785-52.075 4.278-1.231 4.37 12.223 4.735 14.529a150 150 0 0 0 6.89 27.289" 
        /> -->
    <path fill="currentColor"
        d="M649.021 809.209c.435 1.24.604 1.573.764 2.861l-66.795 36.509c-7.717 4.257-42.199 24.327-48.583 25.402l-.409-.513c3.264-4.204 28.803-17.208 34.975-20.529 26.645-14.337 53.28-29.695 80.048-43.73" 
        />
    <path fill="currentColor"
        d="M645.456 699.788c-4.648 1.853-19.51 10.338-24.547 13.069l-47.343 25.498c-6.144 3.34-12.345 6.556-18.445 9.973-1.999 1.12-4.715 2.153-6.889 1.146l-.018-1.055c1.075-1.626 2.255-2.826 3.988-3.788 30.3-16.811 61.945-32.158 91.945-49.432z" 
        />
    <path fill="currentColor"
        d="M649.948 757.574c.668 1.694.862 3.022.06 4.684-6.819 3.556-50.842 28.018-54.171 28.322-.995.091-.591.152-1.434-.579.484-4.395 8.788-7.836 12.319-9.693 14.379-7.558 28.626-15.623 43.226-22.734" 
        />
    <path fill="currentColor"
        d="M901.449 518.389c1.667-.153 2.44.048 3.509 1.223l-.313 1.388c-3.215 3.803-39.813 22.127-46.24 25.598l-129.302 69.101c-37.714 19.78-77.948 40.31-114.926 61.117-1.316.386-.833.316-2.197.24-1.082-1.503-.833-.694-.846-2.489.769-1.389 1.865-2.406 3.263-3.131 9.195-4.764 18.453-9.762 27.575-14.624l60.108-31.849a9139 9139 0 0 0 131.712-70.097c22.209-11.93 45.861-24.071 67.657-36.477" 
        />
    <path fill="currentColor"
        d="M697.048 671.117c16.08-7.67 33.27-17.18 49.098-25.617l76.779-41.08c38.748-20.823 79.948-41.325 118.104-63.066.016 11.803-.07 23.82.116 35.603-8.095 4.024-16.398 8.807-24.426 13.113l-49.103 26.257a4944 4944 0 0 0-47.826 25.672c-4.459 2.385-24.507 11.893-25.596 14.807.274 1.596-.108.976 1.145 1.947 1.655.062 2.747-.285 4.239-1.068 16.107-8.459 32.089-17.502 48.114-26.064a6460 6460 0 0 0 93.24-50.096 796 796 0 0 0-.203 28.707c-17.316 9.989-36.351 19.313-54.125 28.556L811.55 678.34l-75.241 39.774c-8.854 4.682-21.257 12.099-29.797 16.149-.902-1.844-1.107-12.992-1.39-15.834-1.505-15.142-2.752-33.034-8.074-47.312" 
        />
    <path fill="currentColor"
        d="M706.554 738.908a14873 14873 0 0 1 167.249-88.283l44.495-23.583c4.965-2.643 17.716-9.799 22.385-11.586q.383 15.264.203 30.531c-17.871 10.391-38.538 20.41-56.991 30.255a9668 9668 0 0 0-131.029 70.769l-28.871 15.961c-5.393 2.92-12.987 6.699-17.933 9.88-.846-1.427-.361-31.848.492-33.944" 
        />
    <path fill="currentColor"
        d="M706.274 786.419c13.024-6.574 26.547-14.73 39.503-21.752l147.794-79.132a3572 3572 0 0 1 55.561-29.201c4.645-2.408 28.627-15.655 31.418-15.083 1.453 2.696.819 8.886.691 12.081-9.993 6.163-24.002 12.867-34.638 18.415l-49.2 26.095-113.789 60.786c-24.287 12.976-51.851 26.882-75.65 40.647-.828-3.783-1.252-8.916-1.69-12.856" 
        />
    <path fill="currentColor"
        d="M706.077 778.078c19.29-11.418 231.164-126.216 234.723-126.301.628 1.277.577.61.364 2.001-1.977 1.678-17.523 9.848-20.542 11.442l-31.061 16.694-124.352 66.543a3700 3700 0 0 0-41.907 23.212c-4.051 2.25-13.483 7.905-17.349 9.606-.229-1.462-.464-1.865.124-3.197" 
        />
    <path fill="currentColor"
        d="M467.443 131.698c7.069-.594 16.198 1.311 22.322 4.807 16.337 9.325 32.649 20.161 48.471 30.35l92.579 59.733L978.8 451.552c-17.352 8.011-34.237 16.818-51.265 25.471a7646 7646 0 0 0-101.434 52.549L567.975 664.25c-12.827 6.444-27.476 13.484-39.81 20.538-15.389-11.848-31.884-25.483-47.061-37.715l-58.544-46.775A40664 40664 0 0 1 76.184 320.085c4.89-2.861 13.827-6.969 19.094-9.571a1659 1659 0 0 1 43.781-21.038 6384 6384 0 0 0 88.119-42.85l174.353-85.615c16.067-7.796 31.835-16.098 47.82-24.035 6.064-3.01 11.416-4.488 18.092-5.278" 
        />
    <path fill="currentColor"
        d="M543.722 662.382c-7.192-4.953-21.574-17.621-29.186-23.685l-83.149-66.943A37495 37495 0 0 0 121.376 326.1c-2.004-1.554-4.38-3.521-6.422-4.946-11.749-8.195-8.705-9.055 2.736-14.446 12.203-5.751 25.011-11.712 37.401-17.654l189-90.35 85.887-41.86c9.104-4.361 18.025-9.03 27.203-13.299 9.117-4.371 17.248-4.576 25.956 1.054 13.82 8.934 27.538 18.076 41.304 27.113l64.476 41.839L771.078 331.44l103.277 65.841a2523 2523 0 0 1 29.641 19.356c5.654 3.747 15.818 10.312 20.55 14.89-1.923.953-2.961 1.512-4.746 2.694l.608.713c1.589-.63 4.731-1.738 6.341-1.598 4.89.234 7.199 5.788 7.035 10.327-.236 6.536-.224 18.407-6.026 22.719-2.083 1.549-5.48-.411-6.48.083-4.3 2.124-11.494 5.82-15.513 7.884l-47.587 24.309-197.082 102.417-73.145 38.309c-13.915 7.309-30.101 16.379-44.229 22.998" 
        />
    <path fill="currentColor"
        d="m919.8 434.221.608.713c-6.962 6.113-13.551 14.056-6.975 23.403 1.286 1.829 3.418 2.858 4.069 5.08l-.604 1.008c-1.494.676-1.46.873-3.008.84 1.065-1.509 1.355-1.372 1.389-2.906-5.296-3.396-10.65-8.449-8.843-15.518 1.542-6.038 8.353-9.666 13.364-12.62" 
        />
    <path fill="currentColor"
        d="M453.091 159.922c1.238.319 2.887 2.411 4.071 3.153 8.698 5.452 20.343 5.086 27.717-2.036 16.355 11.654 37.573 24.796 54.616 35.933a6262 6262 0 0 0 92.787 60.334l101.623 65.652c13.292 8.611 26.898 17.873 40.234 26.238l91.997 57.835c12.528 7.977 32.313 19.38 43.243 28.325-8.886 8.134-9.978 14.875-3.885 25.214-15.132 7.214-30.733 15.391-45.732 22.988a9085 9085 0 0 0-111.392 57.69l-170.46 88.793-32.522 17.016c-8.508-7.96-23.728-19.346-33.159-27.027l-83.787-67.033-161.918-128.901-72.665-57.432c-21.285-16.656-44.248-34.057-65.011-51.311 20.496-9.128 41.52-19.613 61.825-29.308l103.453-49.253a8625 8625 0 0 0 84.914-40.821c23.87-11.357 50.821-23.745 74.051-36.049" 
        />
    <path fill="currentColor"
        d="M464.313 226.436c1.832.065 28.627 18.523 32.707 21.253l51.569 34.268c6.611 4.444 13.296 8.765 19.958 13.13 2.122 1.39 6.539 3.92 6.33 6.701-4.871 3.073-14.404 7.287-19.96 10.008l-39.219 19.283-149.783 72.959-3.074 1.544c-26.122-19.712-53.577-38.224-79.919-57.682-8.376-6.188-18.109-12.629-25.844-19.424-.554-.486-.336-.452-.307-1.467 2.8-3.581 43.615-21.981 51.169-25.739 51.676-25.711 104.637-49.27 156.373-74.834" 
        />
    <path fill="currentColor"
        d="M463.789 231.91c1.41-.152 42.423 27.504 47.523 30.878l35.17 23.472c6.75 4.51 14.487 9.376 20.98 14.124-24.253 12.805-52.696 25.794-77.567 38.067a5224 5224 0 0 1-84.384 41.103c-12.982 6.27-25.899 12.944-38.978 18.958-.695.333-2.777 1.458-3.509.953-21.882-15.109-43.357-30.9-64.983-46.391-11.51-8.245-23.238-16.528-34.556-25.028 5.325-3.219 14.575-7.385 20.47-10.275a2523 2523 0 0 1 46.074-22.082z" 
        />
    <path fill="currentColor"
        d="M463.804 235.582c4.237 2.233 11.973 7.656 16.196 10.476l29.356 19.644a3609 3609 0 0 1 34.056 22.91c4.149 2.852 12.648 8.402 16.085 11.594-3.795 2.528-14.444 7.428-18.947 9.631l-37.224 18.289-137.656 67.295-1.606.412c-.767-.258-1.234-.454-1.898-.94-26.644-19.51-53.661-38.527-80.517-57.743-2.395-1.714-9.552-6.337-10.041-9.075 1.215-2.601 23.853-12.548 28.25-14.662a4940 4940 0 0 1 59.215-28.209c34.475-16.17 70.187-34.108 104.731-49.622" 
        />
    <path fill="currentColor"
        d="M463.424 240.946c29.259 18.227 58.778 39.767 87.857 58.622-8.245 3.406-17.407 8.235-25.52 12.264l-40.525 20.055-120.007 58.664c-.584.298-.704.215-1.414.288-5.226-5.018-12.525-9.381-18.527-13.756a4942 4942 0 0 0-40.325-28.96c-8.292-5.834-19.293-12.988-26.731-19.492 6.55-2.62 16.769-7.985 23.438-11.146l49.382-23.411a5748 5748 0 0 0 78.758-37.338c11.088-5.277 22.704-10.287 33.614-15.79" 
        />
    <path fill="currentColor"
        d="m453.523 151.086.427.899c-.126 1.558-.275 1.741-2.135 2.835-10.398 6.116-21.699 11.268-32.561 16.507l-49.787 24.185-190.519 90.979c-7.24 3.437-55.158 25.494-57.287 27.712l.059 1.027c1.413 2.137 15.334 12.754 18.404 15.189a4454 4454 0 0 0 49.069 38.665l160.944 127.047L482.291 601.82l43.801 35.339c6.076 4.914 12.663 10.742 18.721 15.34L792.79 523.263a6425 6425 0 0 1 87.314-44.966c5.944-2.943 25.851-14.053 30.773-13.414l.325.773c-1.262 1.815-2.855 2.259-4.914 3.212L544.48 656.738c-7.028-4.972-16.2-12.685-23.021-18.169l-44.851-36.278L336.024 489.63l-153.37-121.072-45.562-35.941c-7.325-5.771-16.386-12.38-23.272-18.435 8.273-5.075 29.633-14.454 39.053-18.899l68.888-32.958a19150 19150 0 0 0 231.762-111.239" 
        />
    <path fill="currentColor"
        d="M487.82 153.682c8.844 4.508 27.911 17.955 36.948 23.892l73.283 47.76 193.085 124.631a9429 9429 0 0 1 89.405 56.676c4.66 2.951 34.192 21.275 36.467 23.873l-.592.95c-.689.316-2.224 1.086-2.717.763-17.025-11.139-52.045-33.738-67.245-43.293a21137 21137 0 0 1-294.749-189.732l-47.838-31.286c-2.91-1.928-14.856-9.601-16.45-11.366z" 
        />
    <path fill="currentColor"
        d="M926.292 437.446c6.135.821 1.35 21.153-.133 25.186-1.625-.735-3.324-1.712-4.907-2.566-10.241-7.694-5.157-18.115 5.04-22.62" 
        />
    <path fill="currentColor"
        d="M466.574 145.079c4.491-.331 15.512.94 17.138 5.813l-.575.938c-2.024.892-3.968.391-6.254.146-4.243-.002-16.755.779-19.413-2.171l.424-1.025c2.957-2.431 5.063-2.832 8.68-3.701" 
        />
    <path fill="currentColor"
        d="M456.756 155.993c3.25-.22 21.223.767 23.787 1.306l.229.862-1.147 1.434c-6.565 3.165-18.593 3.205-22.869-3.602" 
        />
    <path fill="currentColor"
        d="M71.534 322.481c4.596 2.766 15.243 11.798 19.668 15.411l35.878 29.355 104.768 85.202 212.347 170.926c27.072 21.704 54.146 42.891 80.986 64.952-10.188 12.189-17.062 24.046-22.203 39.12-15.666 45.929-12.029 107.269 9.297 150.832-10.065-8.607-20.173-16.515-30.362-24.906l-44.329-36.895c-2.124-9.609-7.403-21.477-10.257-31.565-11.604-41.035-13.487-88.209 9.196-125.944 1.41-2.345 5.834-7.649 5.717-10.136-.959-1.466-.341-1.156-1.651-1.46-3.35 1.264-6.311 6.688-8.12 9.733-24.574 41.372-21.491 93.591-7.08 137.88 1.794 5.512 3.949 10.823 5.342 16.459l.2.825c-3.025-3.781-4.886-7.022-6.638-11.563-15.499-40.173-22.912-84.112-7.366-125.183a118.6 118.6 0 0 1 9.572-19.714c2.089-3.449 8.182-9.842 6.41-13.915l-.973-.164c-6.495 3.595-16.281 25.021-19.253 32.013-15.893 37.384-8.788 91.014 7.037 128.065L361.43 754.3c-7.745-6.319-17.723-14.03-24.948-20.987-2.627-3.573-4.239-9.617-5.591-13.63-14.656-43.515-19.29-95.971 4.531-137.161 2.034-3.518 7.874-9.416 6.353-13.19l-1.281-.535c-2.097.754-5.197 5.252-6.436 7.232-22.551 36.021-23.439 79.761-14.791 120.142 2.372 11.078 6.172 20.88 8.554 31.634-5.876-6.885-8.769-19.589-11.397-28.438-12.747-47.996-12.224-91.998 17.164-132.919.613-.854-.178-1.912-.583-2.645l-1.038-.232c-3.355 1.367-5.065 4.759-7.012 7.663-29.289 43.691-24.332 98.846-7.86 146.349-10.584-7.959-24.53-20.602-35.23-29.428l-47.33-38.937c-3.212-2.675-14.078-11.496-16.164-14.096-2.725-3.396-6.266-17.293-7.4-22.114-7.782-33.084-10.675-68.65-.358-101.526a125.8 125.8 0 0 1 8.648-21.141c1.708-3.356 6.863-11.244 7.541-14.112-.696-1.632-.163-.957-1.808-1.961-.669.085-1.462.013-1.869.592-26.554 37.864-27.634 86.473-18.792 130.343.837 4.153 5.803 22.567 5.654 24.094-3.158-.854-6.455-14.575-7.44-18.05-9.925-34.993-12.849-69.723-1.295-104.828a117 117 0 0 1 6.011-14.979c1.826-3.784 12.311-18.811 9.969-21.557-5.442.459-13.16 17.389-15.301 21.97-17.969 38.457-15.693 90.472-.96 129.722-9.358-8.81-21.817-18.08-32.005-26.296a3013 3013 0 0 1-45.048-37.477c-1.235-5.357-3.666-11.612-5.351-16.855-13.759-42.796-20.67-90.694-1.107-132.964 1.723-3.724 10.21-16.134 9.765-18.372-1.135-1.62-.41-1.233-2.053-1.526-3.587 1.46-9.032 12.314-10.94 16.142-23.589 47.318-13.205 99.88 2.769 147.532-6.578-9.438-12.827-31.04-15.663-42.54-9.383-38.049-9.774-79.37 11.003-113.987 1.676-2.793 6.005-7.109 5.131-10.453-1.334-.995-.589-.701-2.361-.774-4.387 2.869-11.196 17.041-13.547 22.327-19.838 44.601-10.737 94.416 6.449 138.261-10.79-7.482-42.444-32.9-49.138-42.388-30.617-43.397-36.277-148.988 12.66-179.724" 
        />
    <path fill="currentColor"
        d="M946.237 629.616a824 824 0 0 1 27.591 7.515l-9.521 4.671a1029 1029 0 0 1-18.293 9.728z" 
        />
</svg>