<svg xmlns="http://www.w3.org/2000/svg" viewBox="0 0 1024 1024">

    <path fill="#323131"
        d="M778.696 88.428c6.949-.045 6.165 4.578 4.973 9.5-10.915 45.076-29.732 86.955-50.872 128.212 83.438 45.543 171.915 121.13 188.961 219.032 24.383 140.035-99.982 267.374-216.862 322.271-22.829 10.723-43.84 19.484-68.266 24.401-31.028 6.56-46.069-5.356-68.298-24.387-15.811-13.537-36.61-27.631-54.342-38.537-11.448-7.041-32.511-19.865-45.632-17.577-15.997 2.791-14.587 34.693-14.926 46.811-.201 19.081 1.441 36.992.733 55.98-2.931 61.612-46.892 108.296-106.276 120.368-29.971 5.262-59.031-2.021-86-15.054-7.139-3.45-15.284-8.488-22.337-12.484-3.471 2.707-9.443 6.509-13.026 1.714-.965-3.823 1.459-5.515 4.279-7.423-64.643-45.662-103.124-117.539-120.251-193.528a437.2 437.2 0 0 1 16.869-250.144c66.063-180.041 242.007-291.48 432.278-281.701 12.896.662 26.011 1.779 38.785 3.684a396 396 0 0 1 77.654 20.128 655 655 0 0 1 71.217-83.701c8.641-8.526 21.444-20.521 31.339-27.565" 
        />
    <path fill="#f4f4e9"
        d="M728.16 235.194c9.005 3.344 26.813 14.694 34.958 19.938 56.345 36.28 107.563 84.755 135.427 146.651 21.793 48.411 21.436 104.109 2.658 153.376-4.584 12.083-9.983 25.359-16.195 36.752-42.24 77.472-117.795 137.075-197.245 172.987-19.304 8.726-53.33 21.346-74.08 18.54a44.2 44.2 0 0 1-16.861-6.011c-7.924-4.778-19.035-14.62-27.093-20.918-24.819-19.427-51.319-38.895-80.391-51.427-6.82-2.94-17.072-5.001-24.317-2.685-25.996 8.312-20.869 50.897-20.603 72.266.313 25.262 2.745 47.828-5.891 72.121a138 138 0 0 1-8.888 19.854c-14.343 25.744-43.001 47.893-71.335 55.562-42.742 11.568-74.311-1.187-110.322-21.091a229.8 229.8 0 0 1 41.427-28.42c20.776-10.905 44.154-17.411 60.654-35.136 7.582-7.944 14.715-20.341 16.494-31.281 1.886-11.603 2.35-12.382 8.226-22.186 5.926-9.888 8.36-25.525 7.909-37.161 3.977-6.832 12.177-16.585 17.304-23.094a1003 1003 0 0 0 19.01-25.11l79.581-108.491A4320 4320 0 0 0 603.93 437.337c9.529-14.312 19.312-28.36 28.716-42.788a2316 2316 0 0 0 95.514-159.355" 
        />
    <path fill="#323131"
        d="M706.235 552.699c48.069-5.289 83.31 40.763 52.151 82.474-11.918 15.954-31.09 26.442-50.788 29.187-16.784 2.266-34.065-1.399-47.294-12.105-33.143-26.823-15.871-73.956 17.754-91.129 9.967-5.09 16.989-7.389 28.177-8.427" 
        />
    <path fill="#cc4e51"
        d="M706.062 562.684c21.92-3.358 50.758 9.337 53.783 33.199 4.104 32.37-25.437 54.641-54.228 58.959-34.427 4.035-64.691-21.365-49.42-57.289 8.389-19.737 28.819-32.179 49.865-34.869" 
        />
    <path fill="#323131"
        d="M773.874 382.713c3.126-.467 7.405-.268 10.618-.119 38.044 1.761 76.336 33.863 47.799 71.94-13.662 18.228-33.715 28.23-56.305 31.837-70.623 5.997-97.697-63.824-32.431-96.413 9.256-4.622 20.073-6.366 30.319-7.245" 
        />
    <path fill="#419b8e"
        d="M773.859 392.711c20.965-1.723 54.564 7.998 58.253 31.813 4.235 27.343-33.146 48.689-55.583 51.887a76 76 0 0 1-3.615.477c-36.186 3.764-74.897-25.572-46.826-62.162 10.786-14.059 30.405-20.51 47.771-22.015" 
        />
    <path fill="#f4f4e9"
        d="M517.801 185.714a391.2 391.2 0 0 1 151.237 21.703c-4.246 6.819-10.043 14.349-14.846 20.924a1157 1157 0 0 0-23.91 33.52c-5.951-11.499-12.488-19.162-23.588-26.109a80.72 80.72 0 0 0-61.375-9.811c-44.784 10.411-70.422 59.219-24.825 88.816 20.926 13.583 45.419 14.684 69.265 8.434-10.495 15.041-21.203 32.603-31.064 48.172l-53.649 85.846a9316 9316 0 0 0-131.699 218.703 120 120 0 0 0-10.526-12.751c-20.237-21.097-46.118-31.785-75.214-32.171a104.2 104.2 0 0 0-72.985 29.378c-19.474 19.083-28.112 38.831-28.375 65.917 1.128 49.214 41.126 76.059 86.177 82.644-4.121 34.248-10.754 59.76-34.727 85.791a294 294 0 0 1-25.748-20.886c-64.873-58.915-96.912-151.18-101.592-236.962C97.168 395.18 276.111 197.321 517.801 185.714" 
        />
    <path fill="#323131"
        d="M248.527 470.706c44.268-4.898 82.812 39.373 51.521 78.86-12.623 15.929-33.33 25.425-53.424 27.383-49.333 4.252-84.274-35.299-51.039-79.885 11.902-15.967 33.299-24.502 52.942-26.358" 
        />
    <path fill="#4f00aa"
        d="M246.301 480.689c22.237-3.32 51.388 8.999 54.853 33.647 4.176 29.702-27.009 48.463-52.603 52.532q-.512.091-1.028.166c-39.378 5.621-72.656-25.444-45.394-62.483 10.557-14.343 26.681-21.679 44.172-23.862" 
        />
    <path fill="#323131"
        d="M353.663 290.689c24.088-3.704 56.256 9.807 59.447 36.43 4.562 38.062-32.23 65.664-66.1 70.748-50.248 6.968-80.118-35.799-47.853-77.719 12.987-16.874 33.447-26.9 54.506-29.459" 
        />
    <path fill="#f1aa52"
        d="M357.348 300.209c11.431-1.709 26.471 2.718 35.478 9.915 18.051 14.424 12.269 37.188-.757 52.774a73.3 73.3 0 0 1-49.945 25.823c-10.982 1.46-25.871-1.851-34.709-8.764a30.3 30.3 0 0 1-11.712-20.966c-1.325-12.029 4.681-24.856 12.247-33.857 13.159-15.654 29.358-23.064 49.398-24.925" 
        />
    <path fill="#f4f4e9"
        d="M771.276 106.93c.299 2.484-6.659 22.137-8.053 26.028-23.225 64.818-57.594 125.807-93.47 184.369a3586 3586 0 0 1-100.685 154.86l-40.399 58.727c-9.188 13.474-21.409 32.344-31.476 44.94a120 120 0 0 1-23.395-13.81c-6.203-4.998-8.82-7.587-13.917-13.712 11.351-19.396 24.272-39.407 36.172-58.575l60.313-96.626c44.285-69.879 88.245-139.464 139.684-204.42 22.978-29.016 46.65-57.911 75.226-81.781" 
        />
    <path fill="#ff00e9"
        d="M283.502 640.726a97 97 0 0 1 10.899.238 94.37 94.37 0 0 1 59.29 26.411c5.939 5.815 9.638 10.919 14.964 17.076-8.766 16.516-21.605 39.821-31.169 55.777-11.751 1.772-29.415 8.269-39.264 14.938-14.522 9.834-20.657 19.614-24.123 36.376-.461 2.606-.827 5.554-1.211 8.2-20.374-3.682-37.289-9.734-53.364-23.162-31.812-26.574-30.416-74.266-3.586-103.9 18.058-19.944 40.754-30.186 67.564-31.954" 
        />
    <path fill="#cc4e51"
        d="M559.313 233.704c9.938-1.415 25.069 1.783 34.013 6.058 16.945 8.099 23.446 15.22 30.014 31.984-4.482 7-9.385 14.01-14.006 20.955-3.796 5.705-7.875 12.525-11.965 17.85-7.857 3.296-19.039 5.903-27.476 6.661-16.519 1.698-35.871-3.372-49.136-13.683-24.977-19.416-15.608-48.517 9.83-61.758 9.912-5.159 17.272-7.021 28.726-8.067" 
        />
    <path fill="#00ff00"
        d="M336.273 750.084c1.545.22 19.207 10.599 22.682 12.423 1.879 14.337 1.587 29.842-2.16 43.855-10.077 37.68-48.193 44.379-78.865 61.695-5.562 3.267-10.253 6.004-15.525 9.719 3.163-5.751 5.835-12.281 8.329-18.361 22.788-55.547-8.715-91.639 65.539-109.331" 
        />
    <path fill="#f4f4e9"
        d="M442.078 578.97c1.103.939 6.24 6.784 7.84 8.366 9.087 8.985 15.433 12.136 26.85 16.774-4.624 5.829-9.838 13.309-14.304 19.372l-31.47 42.804c-6.578 9.002-13.314 18.694-20.195 27.402l-3.977 4.844c-10.923-4.45-17.265-9.022-25.38-17.274 7.708-14.364 16.383-27.829 24.796-41.732a6382 6382 0 0 0 35.84-60.556" 
        />
    <path fill="#f4f4e9"
        d="M368.584 704.256c.626.393 4.832 3.813 5.63 4.435 6.168 4.81 10.414 7.616 17.613 10.452-8.666 10.338-16.41 21.643-25.284 32.013l-3.219 3.41c-5.608-3.639-11.596-6.877-17.491-10.014 7.225-13.364 15.268-26.994 22.751-40.296" 
        />
    <path fill="#f4f4e9"
        d="M454.594 557.218c2.469 1.694 8.319 8.252 11.493 10.764 8.208 6.498 16.039 10.574 25.128 15.607-2.807 4.457-4.543 7.727-8.152 11.621l-1.33.81c-11.761-2.487-27.146-15.515-34.193-25.703z" 
        />
    <path fill="#f4f4e9"
        d="M376.712 689.733c9.716 8.607 13.432 10.748 24.576 16.713-1.165 1.712-2.573 3.523-3.817 5.201l-.943.3c-5.053-1.647-18.898-12.69-22.685-16.654z" 
        />
    <path fill="#f4f4e9"
        d="M372.837 757.909c.488 3.371-1.91 12.408-3.586 15.503-.167-4.043-.355-6.803-.907-10.796z" 
        />
</svg>